<svg width="39" height="40" viewBox="0 0 39 40" fill="none" xmlns="http://www.w3.org/2000/svg">
<path d="M9.61531 20.8284C9.03434 20.0096 8.62308 19.0828 8.40577 18.1026C8.18845 17.1225 8.16947 16.1087 8.34994 15.1211C8.53042 14.1335 8.90669 13.192 9.45661 12.352C10.0065 11.5121 10.719 10.7906 11.552 10.2302C12.385 9.66982 13.3217 9.28177 14.307 9.08893C15.2922 8.89609 16.3061 8.90236 17.289 9.10737C18.2718 9.31238 19.2036 9.71198 20.0296 10.2826C20.8557 10.8533 21.5591 11.5835 22.0986 12.4302L24.0564 11.5051C23.2988 10.2451 22.2641 9.17436 21.0307 8.37416C19.7974 7.57397 18.3979 7.06538 16.9386 6.88701C15.4792 6.70865 13.9985 6.86521 12.6087 7.34481C11.2189 7.8244 9.95674 8.61441 8.91801 9.65483C7.87927 10.6952 7.0913 11.9587 6.61396 13.3492C6.13661 14.7398 5.98245 16.2208 6.16317 17.6798C6.34389 19.1389 6.85475 20.5375 7.65694 21.7696C8.45913 23.0016 9.53155 24.0347 10.7927 24.7902C11.2835 24.2095 11.8455 23.6931 12.4655 23.253C11.3257 22.6989 10.345 21.8646 9.61531 20.8284Z" fill="#EDA240"/>
<path d="M12.6598 12.0963C11.9612 12.5898 11.4873 13.3407 11.3423 14.1836C11.1973 15.0266 11.3932 15.8926 11.8867 16.5912L17.1604 24.0558C15.8905 24.4344 14.5857 25.043 13.5761 25.9353C12.8339 26.5912 12.217 27.4246 11.9305 28.4536C11.6389 29.4941 11.7092 30.6369 12.1813 31.8565C12.2366 31.9997 12.322 32.1294 12.4316 32.2369C12.5412 32.3444 12.6726 32.4271 12.8169 32.4796C12.9612 32.532 13.1151 32.5529 13.2681 32.5409C13.4212 32.5289 13.5699 32.4843 13.7043 32.41C18.6131 29.7001 22.6862 30.5395 25.0836 31.5519C26.8842 32.312 29.305 32.2733 30.884 30.6892L33.2203 28.3436C33.8855 27.6762 34.3635 26.8457 34.6065 25.9352C34.8495 25.0248 34.8488 24.0665 34.6046 23.1564L33.0184 17.2484C32.8145 16.4881 32.4462 15.7819 31.9393 15.1796C31.4325 14.5773 30.7996 14.0937 30.0853 13.763C29.371 13.4322 28.5928 13.2624 27.8057 13.2654C27.0185 13.2685 26.2417 13.4444 25.53 13.7808L19.735 16.5218L17.1546 12.8694C16.6611 12.1708 15.9103 11.6969 15.0673 11.5519C14.2244 11.407 13.3583 11.6028 12.6598 12.0963ZM13.6427 15.3506C13.4782 15.1177 13.4129 14.829 13.4612 14.5481C13.5095 14.2671 13.6675 14.0168 13.9004 13.8523C14.1332 13.6878 14.4219 13.6225 14.7029 13.6708C14.9839 13.7192 15.2341 13.8771 15.3986 14.11L18.5001 18.4999C18.6462 18.7063 18.8604 18.8545 19.105 18.9186C19.3496 18.9826 19.6089 18.9585 19.8374 18.8503L26.4482 15.7251C26.8752 15.5231 27.3413 15.4174 27.8136 15.4154C28.2859 15.4134 28.7529 15.5152 29.1816 15.7135C29.6102 15.9119 29.9901 16.202 30.2943 16.5633C30.5985 16.9246 30.8196 17.3484 30.942 17.8045L32.5265 23.7137C32.6733 24.2596 32.674 24.8345 32.5286 25.3808C32.3833 25.927 32.0968 26.4255 31.6981 26.8261L29.3618 29.1717C28.5882 29.9472 27.189 30.1092 25.9194 29.5715C23.2908 28.4592 18.992 27.5686 13.9125 29.899C13.8942 29.575 13.9294 29.2895 14.0012 29.0334C14.153 28.4918 14.4897 27.996 14.9971 27.5479C16.0376 26.6286 17.665 26.0369 19.1288 25.8135C19.3101 25.7861 19.4813 25.7127 19.6261 25.6004C19.771 25.4881 19.8848 25.3406 19.9566 25.1719C20.0285 25.0032 20.056 24.819 20.0365 24.6367C20.0171 24.4545 19.9514 24.2802 19.8456 24.1304L13.6427 15.3506Z" fill="#EDA240"/>
</svg>
