<svg width="512" height="512" viewBox="0 0 512 512" fill="none" xmlns="http://www.w3.org/2000/svg">
<path d="M0 50C0 22.3858 22.3858 0 50 0H462C489.614 0 512 22.3858 512 50V462C512 489.614 489.614 512 462 512H50C22.3858 512 0 489.614 0 462V50Z" fill="#08080B"/>
<path d="M0 50C0 22.3858 22.3858 0 50 0H462C489.614 0 512 22.3858 512 50V281.618C512 309.233 489.614 331.618 462 331.618H50C22.3858 331.618 0 309.233 0 281.618V50Z" fill="#EC3349"/>
<path d="M59.183 449.82C53.9897 449.82 49.5344 449.055 45.817 447.524C42.0997 445.993 39.2843 443.998 37.371 441.538C35.5123 439.023 34.5283 436.29 34.419 433.338C34.419 432.901 34.583 432.518 34.911 432.19C35.2937 431.807 35.731 431.616 36.223 431.616H46.555C47.211 431.616 47.7303 431.753 48.113 432.026C48.5503 432.245 48.9877 432.6 49.425 433.092C50.1357 434.513 51.2837 435.689 52.869 436.618C54.4544 437.547 56.559 438.012 59.183 438.012C62.299 438.012 64.677 437.52 66.317 436.536C67.957 435.552 68.777 434.213 68.777 432.518C68.777 431.315 68.3397 430.331 67.465 429.566C66.645 428.801 65.333 428.117 63.529 427.516C61.725 426.915 59.0463 426.231 55.493 425.466C48.933 424.099 44.013 422.104 40.733 419.48C37.5077 416.801 35.895 413.002 35.895 408.082C35.895 404.747 36.8243 401.768 38.683 399.144C40.5417 396.52 43.193 394.47 46.637 392.994C50.081 391.518 54.099 390.78 58.691 390.78C63.447 390.78 67.5744 391.6 71.073 393.24C74.5717 394.88 77.223 396.957 79.027 399.472C80.8857 401.932 81.8697 404.365 81.979 406.77C81.979 407.262 81.815 407.672 81.487 408C81.159 408.328 80.749 408.492 80.257 408.492H69.433C68.777 408.492 68.2304 408.383 67.793 408.164C67.4104 407.945 67.055 407.59 66.727 407.098C66.399 405.841 65.497 404.775 64.021 403.9C62.5997 403.025 60.823 402.588 58.691 402.588C56.231 402.588 54.345 403.025 53.033 403.9C51.721 404.775 51.065 406.059 51.065 407.754C51.065 408.902 51.4203 409.859 52.131 410.624C52.8963 411.389 54.099 412.1 55.739 412.756C57.4337 413.357 59.839 413.986 62.955 414.642C68.039 415.571 72.0844 416.747 75.091 418.168C78.1524 419.535 80.3937 421.339 81.815 423.58C83.2364 425.767 83.947 428.527 83.947 431.862C83.947 435.525 82.881 438.723 80.749 441.456C78.6717 444.135 75.747 446.212 71.975 447.688C68.2577 449.109 63.9937 449.82 59.183 449.82ZM93.3021 449C92.7007 449 92.2087 448.809 91.8261 448.426C91.4434 448.043 91.2521 447.551 91.2521 446.95V408.41C91.2521 407.809 91.4434 407.317 91.8261 406.934C92.2087 406.551 92.7007 406.36 93.3021 406.36H102.24C102.841 406.36 103.333 406.551 103.716 406.934C104.099 407.317 104.29 407.809 104.29 408.41V411.198C105.547 409.558 107.215 408.219 109.292 407.18C111.424 406.087 113.802 405.54 116.426 405.54C122.439 405.54 126.594 407.891 128.89 412.592C130.202 410.515 132.033 408.82 134.384 407.508C136.735 406.196 139.249 405.54 141.928 405.54C146.411 405.54 150.046 407.071 152.834 410.132C155.677 413.139 157.098 417.649 157.098 423.662V446.95C157.098 447.497 156.907 447.989 156.524 448.426C156.141 448.809 155.649 449 155.048 449H145.536C144.935 449 144.415 448.809 143.978 448.426C143.595 448.043 143.404 447.551 143.404 446.95V424.236C143.404 421.503 142.83 419.535 141.682 418.332C140.589 417.129 139.085 416.528 137.172 416.528C135.423 416.528 133.974 417.157 132.826 418.414C131.678 419.617 131.104 421.557 131.104 424.236V446.95C131.104 447.497 130.913 447.989 130.53 448.426C130.147 448.809 129.655 449 129.054 449H119.542C118.941 449 118.449 448.809 118.066 448.426C117.683 448.043 117.492 447.551 117.492 446.95V424.236C117.492 421.557 116.891 419.617 115.688 418.414C114.54 417.157 113.064 416.528 111.26 416.528C109.511 416.528 108.035 417.157 106.832 418.414C105.684 419.617 105.11 421.53 105.11 424.154V446.95C105.11 447.497 104.919 447.989 104.536 448.426C104.153 448.809 103.661 449 103.06 449H93.3021ZM179.157 449.82C176.26 449.82 173.609 449.273 171.203 448.18C168.853 447.032 166.994 445.501 165.627 443.588C164.315 441.62 163.659 439.461 163.659 437.11C163.659 433.338 165.19 430.304 168.251 428.008C171.367 425.712 175.631 424.127 181.043 423.252L191.293 421.694V420.546C191.293 418.469 190.856 416.938 189.981 415.954C189.107 414.97 187.631 414.478 185.553 414.478C184.296 414.478 183.257 414.697 182.437 415.134C181.617 415.571 180.77 416.173 179.895 416.938C179.13 417.594 178.556 418.031 178.173 418.25C178.009 418.687 177.709 418.906 177.271 418.906H168.333C167.787 418.906 167.322 418.742 166.939 418.414C166.611 418.031 166.475 417.594 166.529 417.102C166.584 415.626 167.295 413.986 168.661 412.182C170.083 410.378 172.215 408.82 175.057 407.508C177.955 406.196 181.508 405.54 185.717 405.54C192.441 405.54 197.416 407.043 200.641 410.05C203.867 413.002 205.479 416.993 205.479 422.022V446.95C205.479 447.497 205.288 447.989 204.905 448.426C204.523 448.809 204.031 449 203.429 449H193.917C193.371 449 192.879 448.809 192.441 448.426C192.059 447.989 191.867 447.497 191.867 446.95V444.08C190.665 445.775 188.97 447.169 186.783 448.262C184.651 449.301 182.109 449.82 179.157 449.82ZM183.011 440.472C185.526 440.472 187.549 439.652 189.079 438.012C190.665 436.372 191.457 433.967 191.457 430.796V429.648L184.487 430.878C179.567 431.753 177.107 433.475 177.107 436.044C177.107 437.411 177.681 438.504 178.829 439.324C179.977 440.089 181.371 440.472 183.011 440.472ZM216.783 449C216.236 449 215.744 448.809 215.307 448.426C214.924 447.989 214.733 447.497 214.733 446.95V392.83C214.733 392.229 214.924 391.737 215.307 391.354C215.744 390.971 216.236 390.78 216.783 390.78H226.295C226.896 390.78 227.388 390.971 227.771 391.354C228.153 391.737 228.345 392.229 228.345 392.83V420.3L239.743 407.754C239.852 407.645 240.043 407.453 240.317 407.18C240.645 406.907 240.973 406.715 241.301 406.606C241.629 406.442 242.011 406.36 242.449 406.36H253.437C253.929 406.36 254.339 406.551 254.667 406.934C255.049 407.262 255.241 407.672 255.241 408.164C255.241 408.765 255.022 409.23 254.585 409.558L239.825 425.466L256.635 445.884C257.072 446.321 257.291 446.731 257.291 447.114C257.291 447.661 257.099 448.125 256.717 448.508C256.389 448.836 255.951 449 255.405 449H244.171C243.46 449 242.913 448.891 242.531 448.672C242.203 448.453 241.793 448.098 241.301 447.606L228.345 432.026V446.95C228.345 447.497 228.153 447.989 227.771 448.426C227.388 448.809 226.896 449 226.295 449H216.783ZM264.667 400.21C264.066 400.21 263.574 400.019 263.191 399.636C262.809 399.253 262.617 398.761 262.617 398.16V390.78C262.617 390.179 262.809 389.687 263.191 389.304C263.574 388.921 264.066 388.73 264.667 388.73H274.507C275.109 388.73 275.601 388.921 275.983 389.304C276.366 389.687 276.557 390.179 276.557 390.78V398.16C276.557 398.761 276.366 399.253 275.983 399.636C275.601 400.019 275.109 400.21 274.507 400.21H264.667ZM264.749 449C264.148 449 263.656 448.809 263.273 448.426C262.891 448.043 262.699 447.551 262.699 446.95V408.41C262.699 407.809 262.891 407.317 263.273 406.934C263.656 406.551 264.148 406.36 264.749 406.36H274.425C275.027 406.36 275.519 406.551 275.901 406.934C276.284 407.317 276.475 407.809 276.475 408.41V446.95C276.475 447.497 276.284 447.989 275.901 448.426C275.519 448.809 275.027 449 274.425 449H264.749ZM328.055 449.82C320.238 449.82 314.115 447.934 309.687 444.162C305.314 440.335 302.991 434.814 302.717 427.598C302.663 426.122 302.635 423.717 302.635 420.382C302.635 416.993 302.663 414.533 302.717 413.002C302.991 405.895 305.369 400.429 309.851 396.602C314.334 392.721 320.402 390.78 328.055 390.78C332.866 390.78 337.185 391.6 341.011 393.24C344.838 394.825 347.845 397.121 350.031 400.128C352.273 403.08 353.421 406.551 353.475 410.542V410.706C353.475 411.143 353.284 411.526 352.901 411.854C352.573 412.127 352.191 412.264 351.753 412.264H340.683C339.973 412.264 339.426 412.127 339.043 411.854C338.661 411.526 338.333 410.952 338.059 410.132C337.294 407.344 336.091 405.403 334.451 404.31C332.811 403.162 330.652 402.588 327.973 402.588C321.523 402.588 318.188 406.196 317.969 413.412C317.915 414.888 317.887 417.157 317.887 420.218C317.887 423.279 317.915 425.603 317.969 427.188C318.188 434.404 321.523 438.012 327.973 438.012C330.652 438.012 332.839 437.438 334.533 436.29C336.228 435.087 337.403 433.147 338.059 430.468C338.278 429.648 338.579 429.101 338.961 428.828C339.344 428.5 339.918 428.336 340.683 428.336H351.753C352.245 428.336 352.655 428.5 352.983 428.828C353.366 429.156 353.53 429.566 353.475 430.058C353.421 434.049 352.273 437.547 350.031 440.554C347.845 443.506 344.838 445.802 341.011 447.442C337.185 449.027 332.866 449.82 328.055 449.82ZM364.147 449C363.601 449 363.109 448.809 362.671 448.426C362.289 447.989 362.097 447.497 362.097 446.95V393.65C362.097 393.049 362.289 392.557 362.671 392.174C363.109 391.791 363.601 391.6 364.147 391.6H386.451C393.613 391.6 399.189 393.24 403.179 396.52C407.225 399.745 409.247 404.337 409.247 410.296C409.247 414.123 408.345 417.375 406.541 420.054C404.737 422.733 402.25 424.783 399.079 426.204L410.313 446.376C410.477 446.704 410.559 447.005 410.559 447.278C410.559 447.715 410.368 448.125 409.985 448.508C409.657 448.836 409.275 449 408.837 449H397.931C396.346 449 395.225 448.262 394.569 446.786L385.221 428.746H376.857V446.95C376.857 447.551 376.639 448.043 376.201 448.426C375.819 448.809 375.327 449 374.725 449H364.147ZM386.287 417.102C388.802 417.102 390.715 416.501 392.027 415.298C393.339 414.041 393.995 412.319 393.995 410.132C393.995 407.945 393.339 406.223 392.027 404.966C390.77 403.654 388.857 402.998 386.287 402.998H376.857V417.102H386.287ZM420.843 449C420.296 449 419.804 448.809 419.367 448.426C418.984 447.989 418.793 447.497 418.793 446.95V393.65C418.793 393.049 418.984 392.557 419.367 392.174C419.804 391.791 420.296 391.6 420.843 391.6H429.699C431.011 391.6 431.967 392.201 432.569 393.404L447.001 419.234L461.433 393.404C462.034 392.201 462.991 391.6 464.303 391.6H473.077C473.678 391.6 474.17 391.791 474.553 392.174C474.99 392.557 475.209 393.049 475.209 393.65V446.95C475.209 447.551 474.99 448.043 474.553 448.426C474.17 448.809 473.678 449 473.077 449H463.319C462.717 449 462.198 448.809 461.761 448.426C461.378 448.043 461.187 447.551 461.187 446.95V416.2L452.003 433.338C451.292 434.595 450.335 435.224 449.133 435.224H444.869C444.158 435.224 443.584 435.06 443.147 434.732C442.709 434.404 442.327 433.939 441.999 433.338L432.733 416.2V446.95C432.733 447.497 432.541 447.989 432.159 448.426C431.776 448.809 431.284 449 430.683 449H420.843Z" fill="white"/>
<path d="M252.677 159.378H380.907C382.388 159.378 383.759 158.512 384.398 157.156C388.283 148.945 391.774 140.458 388.038 134.941C384.461 129.606 375.729 127.424 357.864 127.424C346.501 127.424 332.135 128.33 316.958 129.291C298.092 130.481 276.728 131.837 255.711 131.837C254.317 131.837 253.032 132.577 252.347 133.783C252.016 134.366 249.076 139.867 248.714 152.98C248.674 154.106 248.729 155.068 248.824 155.935C249.045 157.889 250.7 159.378 252.677 159.378Z" fill="white"/>
<path d="M422.663 216.064C422.014 214.988 422.511 213.582 423.697 213.17C424.982 212.705 425.935 211.625 426.211 210.278L428.646 198.442C428.93 197.094 428.465 195.691 427.433 194.769L414.564 183.288C413.871 182.673 412.98 182.318 412.066 182.303C401.947 182.099 392.227 178.371 384.518 171.814C382.786 170.341 381.206 169.004 380.032 168.023C379.339 167.44 378.456 167.125 377.55 167.125H259.085C257.824 167.125 256.65 167.732 255.925 168.764C255.2 169.789 255.018 171.105 255.436 172.295C256.421 175.069 258.431 177.433 261.204 180.719C264.167 184.218 268.234 189.009 272.97 196.582C276.351 202.004 276.981 207.551 274.845 213.107C271.48 221.807 262.182 228.584 256.736 230.129C252.394 231.374 244.971 232.107 236.878 232.107C224.064 232.107 210.739 230.302 199.367 227.016C178.264 220.909 174.245 173.485 176.491 165.281C177.736 160.703 183.284 145.509 188.65 130.82C189.867 127.48 190.951 124.518 191.928 121.838C192.278 120.875 193.448 120.504 194.3 121.072C194.946 121.482 195.656 121.679 196.373 121.679C197.657 121.679 198.91 121.041 199.643 119.882C200.794 118.07 200.258 115.682 198.453 114.532C198.446 114.528 198.184 114.36 197.754 114.066C196.3 113.074 195.765 111.211 196.353 109.552C196.734 108.48 197.078 107.504 197.388 106.618C197.412 106.55 197.482 106.507 197.553 106.522C197.605 106.533 197.644 106.572 197.661 106.622C198.077 107.815 199.011 108.802 200.329 109.126C205.94 110.497 211.18 112.38 211.235 112.404C211.669 112.562 212.11 112.64 212.551 112.64C214.143 112.64 215.625 111.655 216.2 110.079C216.925 108.07 215.885 105.84 213.875 105.123C213.647 105.044 208.209 103.081 202.173 101.608C201.173 101.355 199.591 99.9973 199.832 98.9942C200.005 98.276 200.069 97.8072 200.069 97.4628C200.069 90.2365 173.094 80.2915 164.694 79.9999C162.219 79.9999 160.052 81.0323 158.421 82.9787C152.377 90.1892 155.608 110.497 156.317 114.5C156.609 116.179 157.964 117.455 159.658 117.668C164.943 118.32 168.238 123.566 166.25 128.506C160.473 142.86 150.569 164.518 148.035 168.465C147.27 169.568 142.172 170.474 139.721 170.908C134.481 171.838 129.524 172.712 127.64 176.479C125.996 179.774 125.867 185.046 126.027 188.756C126.067 189.686 125.325 190.372 124.394 190.372C106.45 190.372 89.7359 200.041 80.7759 215.542C78.8058 218.954 78.4749 222.24 79.783 225.329C82.3789 231.401 85.0053 238.478 82.537 244.603C80.5446 249.547 79.4441 254.94 79.4441 260.594C79.4441 284.361 98.7746 303.707 122.542 303.707C146.309 303.707 165.639 284.361 165.639 260.594C165.639 258.976 167.187 257.79 168.68 258.415C171.73 259.692 174.727 261.113 175.766 261.658C177.176 262.406 178.343 261.579 178.587 260.421C179.167 257.737 182.484 256.258 184.864 257.627C194.853 263.377 205.988 263.849 221.259 263.849H278.515C303.097 263.849 323.363 285.638 344.793 297.68C351.605 301.507 359.458 303.692 367.818 303.692C393.886 303.692 415.1 282.493 415.1 256.41C415.1 254.096 416.694 252.055 418.972 251.655C429.095 249.877 430.977 247.959 431.932 246.969C433.406 245.472 433.658 243.856 433.619 242.8C433.34 235.028 427.039 223.311 422.663 216.064ZM146.262 260.586C146.262 273.66 135.623 284.306 122.542 284.306C109.46 284.306 98.8219 273.66 98.8219 260.586C98.8219 246.512 116.573 243.79 130.233 247.177C130.694 247.291 131.157 247.406 131.62 247.52C132.436 247.723 133.253 247.926 134.071 248.13C140.372 249.703 146.262 254.092 146.262 260.586ZM395.706 256.394C395.706 271.784 383.184 284.298 367.802 284.298C362.282 284.298 357.132 282.687 352.796 279.909C339.761 271.558 352.4 256.304 367.867 255.641C377.498 255.228 386.365 254.716 393.22 254.284C394.476 254.205 395.706 255.135 395.706 256.394Z" fill="white"/>
</svg>
