<svg width="321" height="500" viewBox="0 0 321 500" fill="none" xmlns="http://www.w3.org/2000/svg">
<path d="M160.989 500L22.4344 240.804L299.543 240.804L160.989 500Z" fill="#1F1D2B"/>
<ellipse cx="160.966" cy="160.817" rx="159.989" ry="160.817" fill="#1F1D2B"/>
<ellipse cx="161.396" cy="160.385" rx="126.012" ry="126.665" fill="#ECA23F"/>
<path d="M160.666 124.726H243.004C243.955 124.726 244.836 124.166 245.246 123.291C247.74 117.991 249.982 112.513 247.583 108.953C245.286 105.51 239.679 104.101 228.208 104.101C220.912 104.101 211.687 104.686 201.941 105.306C189.828 106.074 176.11 106.949 162.614 106.949C161.719 106.949 160.894 107.427 160.454 108.205C160.241 108.582 158.354 112.132 158.121 120.596C158.096 121.323 158.131 121.943 158.192 122.503C158.334 123.764 159.396 124.726 160.666 124.726Z" fill="white"/>
<path d="M269.814 161.308C269.398 160.615 269.717 159.711 270.48 159.445V159.445C271.305 159.145 271.917 158.448 272.095 157.578L273.658 149.938C273.84 149.069 273.542 148.163 272.879 147.568L264.616 140.158C264.17 139.761 263.599 139.532 263.012 139.522V139.522C256.516 139.39 250.278 136.989 245.339 132.766C244.22 131.81 243.2 130.941 242.442 130.305C241.997 129.929 241.43 129.726 240.849 129.726H164.78C163.971 129.726 163.217 130.117 162.751 130.784C162.286 131.445 162.169 132.294 162.438 133.062C163.07 134.853 164.36 136.378 166.141 138.499C168.044 140.758 170.655 143.85 173.696 148.738C175.867 152.237 176.272 155.818 174.9 159.404C172.74 165.019 166.769 169.394 163.272 170.39C160.484 171.194 155.718 171.667 150.521 171.667C142.293 171.667 133.737 170.502 126.435 168.381C112.884 164.439 110.303 133.83 111.746 128.535C112.545 125.58 116.107 115.774 119.553 106.293C120.335 104.136 121.032 102.222 121.659 100.492C121.883 99.8734 122.635 99.6352 123.181 100.001V100.001C123.596 100.266 124.052 100.393 124.512 100.393C125.337 100.393 126.142 99.981 126.612 99.2333C127.351 98.0635 127.007 96.5223 125.848 95.7797C125.844 95.7775 125.675 95.6686 125.398 95.4785C124.464 94.838 124.121 93.6396 124.498 92.5718C124.743 91.8771 124.965 91.2451 125.164 90.6715C125.179 90.6278 125.225 90.6005 125.27 90.6101V90.6101C125.303 90.6172 125.328 90.642 125.339 90.6743C125.607 91.4445 126.206 92.0816 127.052 92.2905C130.655 93.1756 134.02 94.3912 134.056 94.4064C134.334 94.5082 134.617 94.559 134.901 94.559C135.923 94.559 136.874 93.9232 137.243 92.906C137.709 91.609 137.041 90.1696 135.751 89.7067C135.604 89.6559 132.112 88.3894 128.236 87.4382V87.4382C127.595 87.275 126.577 86.4041 126.731 85.7605C126.844 85.2917 126.885 84.9866 126.885 84.7628C126.885 80.0987 109.565 73.6798 104.171 73.4916C102.582 73.4916 101.19 74.1579 100.143 75.4143C96.2618 80.0682 98.3364 93.1756 98.7918 95.7594C98.979 96.8428 99.8494 97.6668 100.937 97.8041V97.8041C104.334 98.2252 106.453 101.595 105.181 104.772C101.473 114.036 95.1024 128.04 93.4737 130.59C92.9828 131.302 89.7089 131.887 88.1353 132.167C84.7703 132.767 81.5875 133.332 80.3782 135.763C79.3215 137.892 79.2396 141.298 79.3426 143.693C79.3683 144.29 78.8912 144.73 78.2934 144.73V144.73C66.7716 144.73 56.0392 150.971 50.2859 160.976C49.0208 163.178 48.8083 165.299 49.6483 167.293V167.293C51.3146 171.211 53.007 175.771 51.421 179.722C50.1389 182.916 49.4307 186.4 49.4307 190.054C49.4307 205.394 61.8431 217.881 77.1043 217.881C92.3655 217.881 104.778 205.394 104.778 190.054V190.054C104.778 189.01 105.777 188.246 106.739 188.651C108.695 189.475 110.614 190.389 111.28 190.741C112.186 191.224 112.935 190.69 113.092 189.942V189.942C113.463 188.213 115.603 187.262 117.134 188.146C123.545 191.85 130.693 192.155 140.492 192.155H161.95C186.547 192.155 210.003 217.871 234.599 217.871V217.871C251.338 217.871 264.96 204.189 264.96 187.353V187.353C264.96 185.86 265.989 184.542 267.459 184.282C273.948 183.135 275.155 181.899 275.768 181.26C276.714 180.293 276.876 179.251 276.851 178.569C276.672 173.551 272.623 165.985 269.814 161.308ZM92.3351 190.049C92.3351 198.487 85.504 205.359 77.1043 205.359C68.7045 205.359 61.8734 198.487 61.8734 190.049V190.049C61.8734 180.982 73.2938 179.214 82.0921 181.406C82.3721 181.476 82.6526 181.546 82.9335 181.616C83.4478 181.744 83.963 181.873 84.4786 182.002C88.5423 183.021 92.3351 185.859 92.3351 190.049V190.049ZM252.507 187.343C252.507 197.277 244.466 205.354 234.589 205.354C231.018 205.354 227.688 204.298 224.891 202.48C216.559 197.066 224.696 187.285 234.624 186.857C240.807 186.591 246.5 186.261 250.903 185.982C251.713 185.93 252.507 186.531 252.507 187.343V187.343Z" fill="white"/>
</svg>
